<?xml version="1.0" encoding="UTF-8" standalone="no"?>
<!DOCTYPE svg PUBLIC "-//W3C//DTD SVG 1.1//EN" "http://www.w3.org/Graphics/SVG/1.1/DTD/svg11.dtd">
<svg width="100%" height="100%" viewBox="0 0 296 200" version="1.1" xmlns="http://www.w3.org/2000/svg" xmlns:xlink="http://www.w3.org/1999/xlink" xml:space="preserve" xmlns:serif="http://www.serif.com/" style="fill-rule:evenodd;clip-rule:evenodd;stroke-linejoin:round;stroke-miterlimit:2;">
    <g transform="matrix(1,0,0,1,-16.2851,-1.73448)">
        <path d="M230.549,26.509L230.549,176.96C230.549,186.953 222.436,195.066 212.443,195.066L116.128,195.066C106.135,195.066 98.021,186.953 98.021,176.96L98.021,26.509C98.021,16.516 106.135,8.403 116.128,8.403L212.443,8.403C222.436,8.403 230.549,16.516 230.549,26.509Z" style="fill:rgb(224,224,224);"/>
    </g>
    <g transform="matrix(1,0,0,1,92,0)">
        <circle cx="56" cy="100" r="32" style="fill:currentColor;"/>
    </g>
    <g transform="matrix(0.726677,0,0,0.209011,43.1425,155.579)">
        <rect x="112" y="68" width="64" height="64" style="fill:currentColor;fill-rule:nonzero;"/>
    </g>
</svg>
